<svg width="265" height="49" viewBox="0 0 265 49" fill="none" xmlns="http://www.w3.org/2000/svg">
<path d="M53.6 24.216C52.992 24.216 52.52 24.048 52.184 23.712C51.864 23.376 51.704 22.888 51.704 22.248V9.024C51.704 8.4 51.872 7.92 52.208 7.584C52.544 7.248 53.024 7.08 53.648 7.08H61.856C62.336 7.08 62.696 7.208 62.936 7.464C63.192 7.704 63.32 8.056 63.32 8.52C63.32 9 63.192 9.368 62.936 9.624C62.696 9.864 62.336 9.984 61.856 9.984H55.424V14.112H61.328C61.808 14.112 62.176 14.24 62.432 14.496C62.688 14.736 62.816 15.088 62.816 15.552C62.816 16.016 62.688 16.376 62.432 16.632C62.176 16.888 61.808 17.016 61.328 17.016H55.424V22.248C55.424 23.56 54.816 24.216 53.6 24.216ZM66.7171 24.216C66.1091 24.216 65.6451 24.056 65.3251 23.736C65.0051 23.416 64.8451 22.96 64.8451 22.368V13.848C64.8451 13.256 64.9971 12.808 65.3011 12.504C65.6211 12.184 66.0611 12.024 66.6211 12.024C67.1971 12.024 67.6371 12.184 67.9411 12.504C68.2451 12.808 68.3971 13.256 68.3971 13.848V15.096H68.1571C68.3491 14.136 68.7731 13.392 69.4291 12.864C70.0851 12.336 70.9331 12.04 71.9731 11.976C72.3731 11.944 72.6771 12.048 72.8851 12.288C73.1091 12.512 73.2291 12.888 73.2451 13.416C73.2771 13.912 73.1731 14.304 72.9331 14.592C72.7091 14.88 72.3251 15.056 71.7811 15.12L71.2291 15.168C70.3171 15.248 69.6371 15.512 69.1891 15.96C68.7571 16.408 68.5411 17.056 68.5411 17.904V22.368C68.5411 22.96 68.3811 23.416 68.0611 23.736C67.7571 24.056 67.3091 24.216 66.7171 24.216ZM76.5598 24.192C75.9678 24.192 75.5118 24.024 75.1918 23.688C74.8878 23.336 74.7358 22.848 74.7358 22.224V14.016C74.7358 13.376 74.8878 12.888 75.1918 12.552C75.5118 12.2 75.9678 12.024 76.5598 12.024C77.1358 12.024 77.5758 12.2 77.8798 12.552C78.1998 12.888 78.3598 13.376 78.3598 14.016V22.224C78.3598 22.848 78.2078 23.336 77.9038 23.688C77.5998 24.024 77.1518 24.192 76.5598 24.192ZM76.5598 10.056C75.8878 10.056 75.3678 9.904 74.9998 9.6C74.6478 9.28 74.4718 8.832 74.4718 8.256C74.4718 7.664 74.6478 7.216 74.9998 6.912C75.3678 6.592 75.8878 6.432 76.5598 6.432C77.2318 6.432 77.7438 6.592 78.0958 6.912C78.4478 7.216 78.6238 7.664 78.6238 8.256C78.6238 8.832 78.4478 9.28 78.0958 9.6C77.7438 9.904 77.2318 10.056 76.5598 10.056ZM87.2776 24.264C85.8856 24.264 84.6856 24.016 83.6776 23.52C82.6856 23.008 81.9176 22.296 81.3736 21.384C80.8456 20.456 80.5816 19.368 80.5816 18.12C80.5816 16.904 80.8376 15.84 81.3496 14.928C81.8616 14 82.5736 13.28 83.4856 12.768C84.4136 12.24 85.4616 11.976 86.6296 11.976C87.4776 11.976 88.2456 12.12 88.9336 12.408C89.6216 12.68 90.2136 13.08 90.7096 13.608C91.2056 14.12 91.5816 14.752 91.8376 15.504C92.0936 16.24 92.2216 17.064 92.2216 17.976C92.2216 18.28 92.1256 18.512 91.9336 18.672C91.7416 18.816 91.4616 18.888 91.0936 18.888H83.5576V17.016H89.6056L89.2216 17.352C89.2216 16.696 89.1256 16.152 88.9336 15.72C88.7416 15.272 88.4616 14.936 88.0936 14.712C87.7416 14.488 87.3016 14.376 86.7736 14.376C86.1816 14.376 85.6776 14.512 85.2616 14.784C84.8456 15.056 84.5256 15.448 84.3016 15.96C84.0776 16.472 83.9656 17.088 83.9656 17.808V18C83.9656 19.216 84.2456 20.112 84.8056 20.688C85.3816 21.264 86.2296 21.552 87.3496 21.552C87.7336 21.552 88.1736 21.504 88.6696 21.408C89.1656 21.312 89.6296 21.16 90.0616 20.952C90.4296 20.776 90.7576 20.72 91.0456 20.784C91.3336 20.832 91.5576 20.96 91.7176 21.168C91.8776 21.376 91.9656 21.616 91.9816 21.888C92.0136 22.16 91.9576 22.432 91.8136 22.704C91.6696 22.96 91.4296 23.176 91.0936 23.352C90.5496 23.656 89.9336 23.88 89.2456 24.024C88.5736 24.184 87.9176 24.264 87.2776 24.264ZM96.1535 24.216C95.5615 24.216 95.1055 24.056 94.7855 23.736C94.4815 23.416 94.3295 22.96 94.3295 22.368V13.848C94.3295 13.256 94.4815 12.808 94.7855 12.504C95.1055 12.184 95.5455 12.024 96.1055 12.024C96.6815 12.024 97.1215 12.184 97.4255 12.504C97.7295 12.808 97.8815 13.256 97.8815 13.848V15.216L97.6175 14.424C97.9855 13.64 98.5295 13.04 99.2495 12.624C99.9855 12.192 100.818 11.976 101.746 11.976C102.69 11.976 103.466 12.16 104.074 12.528C104.682 12.88 105.138 13.424 105.442 14.16C105.746 14.88 105.898 15.8 105.898 16.92V22.368C105.898 22.96 105.738 23.416 105.418 23.736C105.114 24.056 104.666 24.216 104.074 24.216C103.498 24.216 103.05 24.056 102.73 23.736C102.426 23.416 102.274 22.96 102.274 22.368V17.088C102.274 16.272 102.122 15.688 101.818 15.336C101.53 14.968 101.082 14.784 100.474 14.784C99.7055 14.784 99.0895 15.024 98.6255 15.504C98.1775 15.984 97.9535 16.624 97.9535 17.424V22.368C97.9535 23.6 97.3535 24.216 96.1535 24.216ZM110.859 24C110.235 24 109.755 23.832 109.419 23.496C109.083 23.16 108.915 22.68 108.915 22.056V9.024C108.915 8.4 109.083 7.92 109.419 7.584C109.755 7.248 110.235 7.08 110.859 7.08H115.539C118.435 7.08 120.667 7.816 122.235 9.288C123.819 10.744 124.611 12.824 124.611 15.528C124.611 16.888 124.403 18.096 123.987 19.152C123.587 20.192 123.003 21.072 122.235 21.792C121.467 22.512 120.523 23.064 119.403 23.448C118.283 23.816 116.995 24 115.539 24H110.859ZM112.635 20.952H115.323C116.235 20.952 117.027 20.84 117.699 20.616C118.371 20.392 118.931 20.056 119.379 19.608C119.827 19.16 120.163 18.6 120.387 17.928C120.611 17.24 120.723 16.44 120.723 15.528C120.723 13.704 120.267 12.352 119.355 11.472C118.459 10.576 117.115 10.128 115.323 10.128H112.635V20.952ZM132.853 24.264C131.589 24.264 130.485 24.016 129.541 23.52C128.613 23.024 127.893 22.312 127.381 21.384C126.869 20.456 126.613 19.36 126.613 18.096C126.613 17.152 126.757 16.304 127.045 15.552C127.333 14.8 127.749 14.16 128.293 13.632C128.853 13.088 129.517 12.68 130.285 12.408C131.053 12.12 131.909 11.976 132.853 11.976C134.117 11.976 135.213 12.224 136.141 12.72C137.085 13.216 137.813 13.92 138.325 14.832C138.853 15.744 139.117 16.832 139.117 18.096C139.117 19.056 138.965 19.912 138.661 20.664C138.373 21.416 137.957 22.064 137.413 22.608C136.869 23.152 136.205 23.568 135.421 23.856C134.653 24.128 133.797 24.264 132.853 24.264ZM132.853 21.552C133.381 21.552 133.837 21.424 134.221 21.168C134.605 20.912 134.909 20.536 135.133 20.04C135.357 19.528 135.469 18.88 135.469 18.096C135.469 16.928 135.229 16.072 134.749 15.528C134.269 14.968 133.637 14.688 132.853 14.688C132.341 14.688 131.885 14.808 131.485 15.048C131.101 15.288 130.797 15.664 130.573 16.176C130.365 16.672 130.261 17.312 130.261 18.096C130.261 19.264 130.501 20.136 130.981 20.712C131.461 21.272 132.085 21.552 132.853 21.552ZM146.986 28.584C146.122 28.584 145.29 28.512 144.49 28.368C143.706 28.224 143.01 28.008 142.402 27.72C142.034 27.56 141.77 27.352 141.61 27.096C141.466 26.84 141.402 26.568 141.418 26.28C141.45 25.992 141.546 25.736 141.706 25.512C141.882 25.288 142.098 25.128 142.354 25.032C142.61 24.952 142.882 24.976 143.17 25.104C143.874 25.424 144.522 25.632 145.114 25.728C145.722 25.824 146.242 25.872 146.674 25.872C147.698 25.872 148.466 25.64 148.978 25.176C149.49 24.712 149.746 24 149.746 23.04V21.216H149.962C149.722 21.952 149.226 22.552 148.474 23.016C147.722 23.48 146.89 23.712 145.978 23.712C144.922 23.712 144.002 23.472 143.218 22.992C142.434 22.496 141.826 21.808 141.394 20.928C140.962 20.032 140.746 19 140.746 17.832C140.746 16.952 140.866 16.152 141.106 15.432C141.362 14.712 141.714 14.096 142.162 13.584C142.626 13.072 143.178 12.68 143.818 12.408C144.474 12.12 145.194 11.976 145.978 11.976C146.922 11.976 147.754 12.208 148.474 12.672C149.21 13.12 149.698 13.712 149.938 14.448L149.698 15.216V13.848C149.698 13.256 149.85 12.808 150.154 12.504C150.474 12.184 150.922 12.024 151.498 12.024C152.074 12.024 152.514 12.184 152.818 12.504C153.122 12.808 153.274 13.256 153.274 13.848V22.632C153.274 24.6 152.73 26.08 151.642 27.072C150.57 28.08 149.018 28.584 146.986 28.584ZM147.058 21C147.602 21 148.066 20.872 148.45 20.616C148.85 20.36 149.162 20 149.386 19.536C149.61 19.056 149.722 18.488 149.722 17.832C149.722 16.84 149.474 16.072 148.978 15.528C148.498 14.968 147.858 14.688 147.058 14.688C146.514 14.688 146.042 14.816 145.642 15.072C145.242 15.312 144.93 15.672 144.706 16.152C144.498 16.616 144.394 17.176 144.394 17.832C144.394 18.824 144.634 19.6 145.114 20.16C145.594 20.72 146.242 21 147.058 21ZM162.111 24.264C160.863 24.264 159.775 24.064 158.847 23.664C157.935 23.264 157.231 22.712 156.735 22.008C156.239 21.304 155.991 20.48 155.991 19.536C155.991 18.992 156.063 18.488 156.207 18.024C156.367 17.544 156.591 17.112 156.879 16.728C157.183 16.328 157.543 15.96 157.959 15.624C158.375 15.272 158.839 14.952 159.351 14.664L160.191 14.184L159.663 14.928C158.991 14.288 158.495 13.648 158.175 13.008C157.871 12.368 157.719 11.712 157.719 11.04C157.719 10.208 157.927 9.472 158.343 8.832C158.759 8.192 159.343 7.696 160.095 7.344C160.847 6.992 161.719 6.816 162.711 6.816C164.087 6.816 165.175 7.168 165.975 7.872C166.775 8.56 167.175 9.496 167.175 10.68C167.175 11.304 167.055 11.896 166.815 12.456C166.575 13 166.199 13.52 165.687 14.016C165.175 14.496 164.503 14.944 163.671 15.36L163.695 14.592L167.535 18.528H166.743C166.951 18.208 167.127 17.856 167.271 17.472C167.431 17.088 167.567 16.68 167.679 16.248C167.791 15.816 167.879 15.376 167.943 14.928C168.039 14.448 168.207 14.088 168.447 13.848C168.703 13.608 169.063 13.488 169.527 13.488C170.023 13.488 170.391 13.632 170.631 13.92C170.887 14.192 170.983 14.584 170.919 15.096C170.823 15.816 170.679 16.504 170.487 17.16C170.295 17.816 170.055 18.432 169.767 19.008C169.495 19.568 169.183 20.088 168.831 20.568L168.807 19.728L170.967 21.84C171.351 22.192 171.543 22.552 171.543 22.92C171.543 23.288 171.399 23.6 171.111 23.856C170.839 24.096 170.463 24.216 169.983 24.216C169.551 24.216 169.199 24.136 168.927 23.976C168.671 23.8 168.375 23.552 168.039 23.232L166.815 21.96H167.607C166.887 22.664 166.047 23.224 165.087 23.64C164.143 24.056 163.151 24.264 162.111 24.264ZM162.327 21.456C163.015 21.456 163.623 21.328 164.151 21.072C164.695 20.816 165.199 20.44 165.663 19.944L165.567 20.808L160.695 15.96L162.231 16.056L161.583 16.416C161.119 16.672 160.735 16.944 160.431 17.232C160.143 17.504 159.927 17.808 159.783 18.144C159.655 18.48 159.591 18.848 159.591 19.248C159.591 19.936 159.831 20.48 160.311 20.88C160.791 21.264 161.463 21.456 162.327 21.456ZM162.711 9.288C162.199 9.288 161.791 9.44 161.487 9.744C161.183 10.032 161.031 10.432 161.031 10.944C161.031 11.216 161.079 11.48 161.175 11.736C161.271 11.976 161.423 12.24 161.631 12.528C161.855 12.8 162.159 13.136 162.543 13.536L161.775 13.488C162.399 13.168 162.887 12.872 163.239 12.6C163.607 12.328 163.871 12.048 164.031 11.76C164.191 11.472 164.271 11.16 164.271 10.824C164.271 10.312 164.127 9.928 163.839 9.672C163.567 9.416 163.191 9.288 162.711 9.288ZM182.49 24.264C180.666 24.264 179.106 23.904 177.81 23.184C176.514 22.464 175.514 21.456 174.81 20.16C174.122 18.848 173.778 17.304 173.778 15.528C173.778 14.2 173.97 13.008 174.354 11.952C174.754 10.88 175.33 9.968 176.082 9.216C176.834 8.448 177.746 7.856 178.818 7.44C179.906 7.024 181.13 6.816 182.49 6.816C183.29 6.816 184.098 6.92 184.914 7.128C185.746 7.32 186.466 7.6 187.074 7.968C187.474 8.192 187.746 8.472 187.89 8.808C188.034 9.144 188.074 9.48 188.01 9.816C187.962 10.152 187.826 10.44 187.602 10.68C187.394 10.92 187.13 11.072 186.81 11.136C186.49 11.2 186.13 11.128 185.73 10.92C185.25 10.632 184.746 10.424 184.218 10.296C183.69 10.168 183.154 10.104 182.61 10.104C181.538 10.104 180.634 10.32 179.898 10.752C179.178 11.168 178.634 11.776 178.266 12.576C177.898 13.376 177.714 14.36 177.714 15.528C177.714 16.68 177.898 17.664 178.266 18.48C178.634 19.296 179.178 19.92 179.898 20.352C180.634 20.768 181.538 20.976 182.61 20.976C183.122 20.976 183.642 20.912 184.17 20.784C184.714 20.656 185.234 20.456 185.73 20.184C186.146 19.976 186.514 19.904 186.834 19.968C187.17 20.016 187.442 20.16 187.65 20.4C187.874 20.624 188.01 20.896 188.058 21.216C188.122 21.536 188.09 21.856 187.962 22.176C187.834 22.496 187.594 22.768 187.242 22.992C186.65 23.392 185.922 23.704 185.058 23.928C184.194 24.152 183.338 24.264 182.49 24.264ZM193.915 24.264C193.051 24.264 192.275 24.096 191.587 23.76C190.899 23.424 190.363 22.968 189.979 22.392C189.595 21.816 189.403 21.168 189.403 20.448C189.403 19.584 189.627 18.904 190.075 18.408C190.523 17.896 191.251 17.536 192.259 17.328C193.267 17.104 194.603 16.992 196.267 16.992H197.539V18.864H196.291C195.475 18.864 194.811 18.912 194.299 19.008C193.803 19.088 193.443 19.232 193.219 19.44C193.011 19.648 192.907 19.936 192.907 20.304C192.907 20.752 193.059 21.12 193.363 21.408C193.683 21.696 194.139 21.84 194.731 21.84C195.195 21.84 195.603 21.736 195.955 21.528C196.323 21.304 196.611 21.008 196.819 20.64C197.027 20.256 197.131 19.824 197.131 19.344V16.584C197.131 15.88 196.971 15.384 196.651 15.096C196.331 14.792 195.787 14.64 195.019 14.64C194.587 14.64 194.115 14.696 193.603 14.808C193.107 14.904 192.555 15.072 191.947 15.312C191.595 15.472 191.283 15.512 191.011 15.432C190.739 15.336 190.531 15.176 190.387 14.952C190.243 14.712 190.171 14.456 190.171 14.184C190.171 13.896 190.251 13.624 190.411 13.368C190.571 13.096 190.835 12.896 191.203 12.768C191.955 12.464 192.659 12.256 193.315 12.144C193.987 12.032 194.603 11.976 195.163 11.976C196.395 11.976 197.403 12.16 198.187 12.528C198.987 12.88 199.587 13.432 199.987 14.184C200.387 14.92 200.587 15.872 200.587 17.04V22.368C200.587 22.96 200.443 23.416 200.155 23.736C199.867 24.056 199.451 24.216 198.907 24.216C198.363 24.216 197.939 24.056 197.635 23.736C197.347 23.416 197.203 22.96 197.203 22.368V21.48L197.371 21.624C197.275 22.168 197.067 22.64 196.747 23.04C196.443 23.424 196.051 23.728 195.571 23.952C195.091 24.16 194.539 24.264 193.915 24.264ZM209.074 24.264C207.97 24.264 207.042 24.08 206.29 23.712C205.554 23.344 205.002 22.808 204.634 22.104C204.282 21.4 204.106 20.512 204.106 19.44V14.928H203.098C202.65 14.928 202.298 14.808 202.042 14.568C201.802 14.328 201.682 14 201.682 13.584C201.682 13.136 201.802 12.8 202.042 12.576C202.298 12.336 202.65 12.216 203.098 12.216H204.106V10.392C204.106 9.784 204.266 9.328 204.586 9.024C204.906 8.704 205.354 8.544 205.93 8.544C206.522 8.544 206.97 8.704 207.274 9.024C207.578 9.328 207.73 9.784 207.73 10.392V12.216H210.01C210.458 12.216 210.802 12.336 211.042 12.576C211.282 12.8 211.402 13.136 211.402 13.584C211.402 14 211.282 14.328 211.042 14.568C210.802 14.808 210.458 14.928 210.01 14.928H207.73V19.296C207.73 19.968 207.882 20.472 208.186 20.808C208.506 21.144 209.01 21.312 209.698 21.312C209.938 21.312 210.162 21.288 210.37 21.24C210.578 21.192 210.77 21.16 210.946 21.144C211.17 21.128 211.354 21.2 211.498 21.36C211.642 21.504 211.714 21.832 211.714 22.344C211.714 22.728 211.65 23.064 211.522 23.352C211.394 23.64 211.17 23.848 210.85 23.976C210.642 24.056 210.354 24.12 209.986 24.168C209.634 24.232 209.33 24.264 209.074 24.264Z" fill="white"/>
<path d="M51.274 44.126C51.0127 44.126 50.798 44.0653 50.63 43.944C50.4713 43.8227 50.3687 43.6593 50.322 43.454C50.2847 43.2487 50.3267 43.02 50.448 42.768L54.032 34.914C54.1813 34.5967 54.3587 34.368 54.564 34.228C54.7693 34.0787 55.0073 34.004 55.278 34.004C55.5487 34.004 55.7867 34.0787 55.992 34.228C56.1973 34.368 56.37 34.5967 56.51 34.914L60.122 42.768C60.2433 43.02 60.2853 43.2533 60.248 43.468C60.22 43.6733 60.1267 43.8367 59.968 43.958C59.8093 44.07 59.604 44.126 59.352 44.126C59.0347 44.126 58.7873 44.0513 58.61 43.902C58.442 43.7527 58.2927 43.5193 58.162 43.202L57.322 41.256L58.19 41.858H52.352L53.22 41.256L52.394 43.202C52.254 43.5287 52.1047 43.7667 51.946 43.916C51.7967 44.056 51.5727 44.126 51.274 44.126ZM55.25 36.44L53.458 40.71L53.08 40.164H57.462L57.084 40.71L55.278 36.44H55.25ZM67.1367 46.646C66.7913 46.646 66.53 46.5527 66.3527 46.366C66.1753 46.1887 66.0867 45.9227 66.0867 45.568V42.712H66.2407C66.0913 43.1413 65.8067 43.4913 65.3867 43.762C64.976 44.0233 64.5 44.154 63.9587 44.154C63.3613 44.154 62.834 44.0093 62.3767 43.72C61.9287 43.4307 61.5787 43.0153 61.3267 42.474C61.0747 41.9327 60.9487 41.2933 60.9487 40.556C60.9487 39.8187 61.0747 39.184 61.3267 38.652C61.5787 38.12 61.9287 37.7093 62.3767 37.42C62.834 37.1307 63.3613 36.986 63.9587 36.986C64.5093 36.986 64.9947 37.126 65.4147 37.406C65.844 37.6767 66.124 38.036 66.2547 38.484L66.1007 39.03V38.078C66.1007 37.7327 66.1893 37.4713 66.3667 37.294C66.5533 37.1073 66.8147 37.014 67.1507 37.014C67.4867 37.014 67.7433 37.1073 67.9207 37.294C68.1073 37.4713 68.2007 37.7327 68.2007 38.078V45.568C68.2007 45.9227 68.1073 46.1887 67.9207 46.366C67.734 46.5527 67.4727 46.646 67.1367 46.646ZM64.5887 42.572C64.8967 42.572 65.1627 42.4973 65.3867 42.348C65.6107 42.1987 65.788 41.9793 65.9187 41.69C66.0493 41.3913 66.1147 41.0133 66.1147 40.556C66.1147 39.8747 65.9747 39.3753 65.6947 39.058C65.4147 38.7313 65.046 38.568 64.5887 38.568C64.29 38.568 64.024 38.638 63.7907 38.778C63.5667 38.918 63.3893 39.1373 63.2587 39.436C63.1373 39.7253 63.0767 40.0987 63.0767 40.556C63.0767 41.2373 63.2167 41.746 63.4967 42.082C63.7767 42.4087 64.1407 42.572 64.5887 42.572ZM72.3636 44.154C71.7849 44.154 71.3042 44.0467 70.9216 43.832C70.5389 43.6173 70.2542 43.2953 70.0676 42.866C69.8902 42.4273 69.8016 41.886 69.8016 41.242V38.078C69.8016 37.7233 69.8902 37.4573 70.0676 37.28C70.2542 37.1027 70.5156 37.014 70.8516 37.014C71.1876 37.014 71.4489 37.1027 71.6356 37.28C71.8222 37.4573 71.9156 37.7233 71.9156 38.078V41.298C71.9156 41.7087 71.9996 42.0167 72.1676 42.222C72.3356 42.418 72.6016 42.516 72.9656 42.516C73.3669 42.516 73.6936 42.376 73.9456 42.096C74.2069 41.8067 74.3376 41.4287 74.3376 40.962V38.078C74.3376 37.7233 74.4262 37.4573 74.6036 37.28C74.7902 37.1027 75.0516 37.014 75.3876 37.014C75.7329 37.014 75.9942 37.1027 76.1716 37.28C76.3582 37.4573 76.4516 37.7233 76.4516 38.078V43.048C76.4516 43.7667 76.1109 44.126 75.4296 44.126C75.0936 44.126 74.8369 44.0327 74.6596 43.846C74.4822 43.6593 74.3936 43.3933 74.3936 43.048V42.11L74.6036 42.656C74.3982 43.132 74.1042 43.5007 73.7216 43.762C73.3389 44.0233 72.8862 44.154 72.3636 44.154ZM79.1514 44.112C78.8061 44.112 78.5401 44.014 78.3534 43.818C78.1761 43.6127 78.0874 43.328 78.0874 42.964V38.176C78.0874 37.8027 78.1761 37.518 78.3534 37.322C78.5401 37.1167 78.8061 37.014 79.1514 37.014C79.4874 37.014 79.7441 37.1167 79.9214 37.322C80.1081 37.518 80.2014 37.8027 80.2014 38.176V42.964C80.2014 43.328 80.1127 43.6127 79.9354 43.818C79.7581 44.014 79.4967 44.112 79.1514 44.112ZM79.1514 35.866C78.7594 35.866 78.4561 35.7773 78.2414 35.6C78.0361 35.4133 77.9334 35.152 77.9334 34.816C77.9334 34.4707 78.0361 34.2093 78.2414 34.032C78.4561 33.8453 78.7594 33.752 79.1514 33.752C79.5434 33.752 79.8421 33.8453 80.0474 34.032C80.2527 34.2093 80.3554 34.4707 80.3554 34.816C80.3554 35.152 80.2527 35.4133 80.0474 35.6C79.8421 35.7773 79.5434 35.866 79.1514 35.866ZM88.6556 44.126C88.385 44.126 88.147 44.056 87.9416 43.916C87.7363 43.7667 87.573 43.5473 87.4516 43.258L85.3376 38.386C85.235 38.1433 85.1976 37.9193 85.2256 37.714C85.2536 37.4993 85.3516 37.3313 85.5196 37.21C85.697 37.0793 85.9396 37.014 86.2476 37.014C86.4996 37.014 86.705 37.0747 86.8636 37.196C87.0223 37.308 87.1623 37.5273 87.2836 37.854L88.9356 42.054H88.4876L90.2096 37.84C90.3403 37.5227 90.485 37.308 90.6436 37.196C90.8023 37.0747 91.0216 37.014 91.3016 37.014C91.5443 37.014 91.7356 37.0793 91.8756 37.21C92.025 37.3313 92.1136 37.4947 92.1416 37.7C92.179 37.9053 92.1416 38.1293 92.0296 38.372L89.8736 43.258C89.7523 43.5567 89.589 43.776 89.3836 43.916C89.1876 44.056 88.945 44.126 88.6556 44.126ZM96.3621 44.154C95.6248 44.154 94.9808 44.0093 94.4301 43.72C93.8888 43.4307 93.4688 43.0153 93.1701 42.474C92.8714 41.9327 92.7221 41.2933 92.7221 40.556C92.7221 40.0053 92.8061 39.5107 92.9741 39.072C93.1421 38.6333 93.3848 38.26 93.7021 37.952C94.0288 37.6347 94.4161 37.3967 94.8641 37.238C95.3121 37.07 95.8114 36.986 96.3621 36.986C97.0994 36.986 97.7388 37.1307 98.2801 37.42C98.8308 37.7093 99.2554 38.12 99.5541 38.652C99.8621 39.184 100.016 39.8187 100.016 40.556C100.016 41.116 99.9274 41.6153 99.7501 42.054C99.5821 42.4927 99.3394 42.8707 99.0221 43.188C98.7048 43.5053 98.3174 43.748 97.8601 43.916C97.4121 44.0747 96.9128 44.154 96.3621 44.154ZM96.3621 42.572C96.6701 42.572 96.9361 42.4973 97.1601 42.348C97.3841 42.1987 97.5614 41.9793 97.6921 41.69C97.8228 41.3913 97.8881 41.0133 97.8881 40.556C97.8881 39.8747 97.7481 39.3753 97.4681 39.058C97.1881 38.7313 96.8194 38.568 96.3621 38.568C96.0634 38.568 95.7974 38.638 95.5641 38.778C95.3401 38.918 95.1628 39.1373 95.0321 39.436C94.9108 39.7253 94.8501 40.0987 94.8501 40.556C94.8501 41.2373 94.9901 41.746 95.2701 42.082C95.5501 42.4087 95.9141 42.572 96.3621 42.572ZM104.648 44.154C103.902 44.154 103.248 44.0093 102.688 43.72C102.138 43.4213 101.713 43.0013 101.414 42.46C101.116 41.9187 100.966 41.2793 100.966 40.542C100.966 39.9913 101.05 39.4967 101.218 39.058C101.386 38.6193 101.629 38.246 101.946 37.938C102.273 37.63 102.665 37.3967 103.122 37.238C103.58 37.07 104.088 36.986 104.648 36.986C104.938 36.986 105.246 37.0233 105.572 37.098C105.899 37.1633 106.221 37.28 106.538 37.448C106.725 37.532 106.851 37.6533 106.916 37.812C106.991 37.9613 107.019 38.12 107 38.288C106.982 38.4467 106.921 38.5913 106.818 38.722C106.725 38.8433 106.604 38.9273 106.454 38.974C106.305 39.0113 106.137 38.9833 105.95 38.89C105.773 38.7873 105.586 38.7127 105.39 38.666C105.204 38.6193 105.026 38.596 104.858 38.596C104.578 38.596 104.331 38.6427 104.116 38.736C103.902 38.82 103.72 38.946 103.57 39.114C103.43 39.2727 103.318 39.4733 103.234 39.716C103.16 39.9587 103.122 40.2387 103.122 40.556C103.122 41.172 103.272 41.6573 103.57 42.012C103.878 42.3573 104.308 42.53 104.858 42.53C105.026 42.53 105.204 42.5113 105.39 42.474C105.577 42.4273 105.764 42.3527 105.95 42.25C106.137 42.1567 106.305 42.1333 106.454 42.18C106.604 42.2267 106.72 42.3153 106.804 42.446C106.898 42.5673 106.949 42.712 106.958 42.88C106.977 43.0387 106.949 43.1973 106.874 43.356C106.809 43.5053 106.688 43.622 106.51 43.706C106.193 43.8647 105.876 43.9767 105.558 44.042C105.241 44.1167 104.938 44.154 104.648 44.154ZM111.421 44.154C110.609 44.154 109.909 44.0093 109.321 43.72C108.742 43.4213 108.294 43.006 107.977 42.474C107.669 41.9327 107.515 41.298 107.515 40.57C107.515 39.8607 107.664 39.24 107.963 38.708C108.262 38.1667 108.677 37.7467 109.209 37.448C109.75 37.14 110.362 36.986 111.043 36.986C111.538 36.986 111.986 37.07 112.387 37.238C112.788 37.3967 113.134 37.63 113.423 37.938C113.712 38.2367 113.932 38.6053 114.081 39.044C114.23 39.4733 114.305 39.954 114.305 40.486C114.305 40.6633 114.249 40.7987 114.137 40.892C114.025 40.976 113.862 41.018 113.647 41.018H109.251V39.926H112.779L112.555 40.122C112.555 39.7393 112.499 39.422 112.387 39.17C112.275 38.9087 112.112 38.7127 111.897 38.582C111.692 38.4513 111.435 38.386 111.127 38.386C110.782 38.386 110.488 38.4653 110.245 38.624C110.002 38.7827 109.816 39.0113 109.685 39.31C109.554 39.6087 109.489 39.968 109.489 40.388V40.5C109.489 41.2093 109.652 41.732 109.979 42.068C110.315 42.404 110.81 42.572 111.463 42.572C111.687 42.572 111.944 42.544 112.233 42.488C112.522 42.432 112.793 42.3433 113.045 42.222C113.26 42.1193 113.451 42.0867 113.619 42.124C113.787 42.152 113.918 42.2267 114.011 42.348C114.104 42.4693 114.156 42.6093 114.165 42.768C114.184 42.9267 114.151 43.0853 114.067 43.244C113.983 43.3933 113.843 43.5193 113.647 43.622C113.33 43.7993 112.97 43.93 112.569 44.014C112.177 44.1073 111.794 44.154 111.421 44.154ZM113.129 35.516C113.222 35.6933 113.241 35.852 113.185 35.992C113.138 36.132 113.05 36.2393 112.919 36.314C112.788 36.3793 112.648 36.4027 112.499 36.384C112.35 36.3653 112.224 36.2767 112.121 36.118L111.057 34.508L109.993 36.118C109.89 36.2767 109.764 36.3653 109.615 36.384C109.466 36.4027 109.326 36.3793 109.195 36.314C109.064 36.2393 108.971 36.132 108.915 35.992C108.868 35.852 108.892 35.6933 108.985 35.516L109.895 33.85C110.026 33.598 110.189 33.4113 110.385 33.29C110.581 33.1593 110.805 33.094 111.057 33.094C111.318 33.094 111.547 33.1593 111.743 33.29C111.939 33.4113 112.102 33.598 112.233 33.85L113.129 35.516ZM123.015 44.154C122.203 44.154 121.503 44.0093 120.915 43.72C120.336 43.4213 119.888 43.006 119.571 42.474C119.263 41.9327 119.109 41.298 119.109 40.57C119.109 39.8607 119.258 39.24 119.557 38.708C119.855 38.1667 120.271 37.7467 120.803 37.448C121.344 37.14 121.955 36.986 122.637 36.986C123.131 36.986 123.579 37.07 123.981 37.238C124.382 37.3967 124.727 37.63 125.017 37.938C125.306 38.2367 125.525 38.6053 125.675 39.044C125.824 39.4733 125.899 39.954 125.899 40.486C125.899 40.6633 125.843 40.7987 125.731 40.892C125.619 40.976 125.455 41.018 125.241 41.018H120.845V39.926H124.373L124.149 40.122C124.149 39.7393 124.093 39.422 123.981 39.17C123.869 38.9087 123.705 38.7127 123.491 38.582C123.285 38.4513 123.029 38.386 122.721 38.386C122.375 38.386 122.081 38.4653 121.839 38.624C121.596 38.7827 121.409 39.0113 121.279 39.31C121.148 39.6087 121.083 39.968 121.083 40.388V40.5C121.083 41.2093 121.246 41.732 121.573 42.068C121.909 42.404 122.403 42.572 123.057 42.572C123.281 42.572 123.537 42.544 123.827 42.488C124.116 42.432 124.387 42.3433 124.639 42.222C124.853 42.1193 125.045 42.0867 125.213 42.124C125.381 42.152 125.511 42.2267 125.605 42.348C125.698 42.4693 125.749 42.6093 125.759 42.768C125.777 42.9267 125.745 43.0853 125.661 43.244C125.577 43.3933 125.437 43.5193 125.241 43.622C124.923 43.7993 124.564 43.93 124.163 44.014C123.771 44.1073 123.388 44.154 123.015 44.154ZM128.192 44.126C127.847 44.126 127.581 44.0327 127.394 43.846C127.217 43.6593 127.128 43.3933 127.128 43.048V38.078C127.128 37.7327 127.217 37.4713 127.394 37.294C127.581 37.1073 127.838 37.014 128.164 37.014C128.5 37.014 128.757 37.1073 128.934 37.294C129.112 37.4713 129.2 37.7327 129.2 38.078V38.876L129.046 38.414C129.261 37.9567 129.578 37.6067 129.998 37.364C130.428 37.112 130.913 36.986 131.454 36.986C132.005 36.986 132.458 37.0933 132.812 37.308C133.167 37.5133 133.433 37.8307 133.61 38.26C133.788 38.68 133.876 39.2167 133.876 39.87V43.048C133.876 43.3933 133.783 43.6593 133.596 43.846C133.419 44.0327 133.158 44.126 132.812 44.126C132.476 44.126 132.215 44.0327 132.028 43.846C131.851 43.6593 131.762 43.3933 131.762 43.048V39.968C131.762 39.492 131.674 39.1513 131.496 38.946C131.328 38.7313 131.067 38.624 130.712 38.624C130.264 38.624 129.905 38.764 129.634 39.044C129.373 39.324 129.242 39.6973 129.242 40.164V43.048C129.242 43.7667 128.892 44.126 128.192 44.126ZM138.801 44.154C138.054 44.154 137.401 44.0093 136.841 43.72C136.29 43.4213 135.865 43.0013 135.567 42.46C135.268 41.9187 135.119 41.2793 135.119 40.542C135.119 39.9913 135.203 39.4967 135.371 39.058C135.539 38.6193 135.781 38.246 136.099 37.938C136.425 37.63 136.817 37.3967 137.275 37.238C137.732 37.07 138.241 36.986 138.801 36.986C139.09 36.986 139.398 37.0233 139.725 37.098C140.051 37.1633 140.373 37.28 140.691 37.448C140.877 37.532 141.003 37.6533 141.069 37.812C141.143 37.9613 141.171 38.12 141.153 38.288C141.134 38.4467 141.073 38.5913 140.971 38.722C140.877 38.8433 140.756 38.9273 140.607 38.974C140.457 39.0113 140.289 38.9833 140.103 38.89C139.925 38.7873 139.739 38.7127 139.543 38.666C139.356 38.6193 139.179 38.596 139.011 38.596C138.731 38.596 138.483 38.6427 138.269 38.736C138.054 38.82 137.872 38.946 137.723 39.114C137.583 39.2727 137.471 39.4733 137.387 39.716C137.312 39.9587 137.275 40.2387 137.275 40.556C137.275 41.172 137.424 41.6573 137.723 42.012C138.031 42.3573 138.46 42.53 139.011 42.53C139.179 42.53 139.356 42.5113 139.543 42.474C139.729 42.4273 139.916 42.3527 140.103 42.25C140.289 42.1567 140.457 42.1333 140.607 42.18C140.756 42.2267 140.873 42.3153 140.957 42.446C141.05 42.5673 141.101 42.712 141.111 42.88C141.129 43.0387 141.101 43.1973 141.027 43.356C140.961 43.5053 140.84 43.622 140.663 43.706C140.345 43.8647 140.028 43.9767 139.711 44.042C139.393 44.1167 139.09 44.154 138.801 44.154ZM145.307 44.154C144.57 44.154 143.926 44.0093 143.375 43.72C142.834 43.4307 142.414 43.0153 142.115 42.474C141.817 41.9327 141.667 41.2933 141.667 40.556C141.667 40.0053 141.751 39.5107 141.919 39.072C142.087 38.6333 142.33 38.26 142.647 37.952C142.974 37.6347 143.361 37.3967 143.809 37.238C144.257 37.07 144.757 36.986 145.307 36.986C146.045 36.986 146.684 37.1307 147.225 37.42C147.776 37.7093 148.201 38.12 148.499 38.652C148.807 39.184 148.961 39.8187 148.961 40.556C148.961 41.116 148.873 41.6153 148.695 42.054C148.527 42.4927 148.285 42.8707 147.967 43.188C147.65 43.5053 147.263 43.748 146.805 43.916C146.357 44.0747 145.858 44.154 145.307 44.154ZM145.307 42.572C145.615 42.572 145.881 42.4973 146.105 42.348C146.329 42.1987 146.507 41.9793 146.637 41.69C146.768 41.3913 146.833 41.0133 146.833 40.556C146.833 39.8747 146.693 39.3753 146.413 39.058C146.133 38.7313 145.765 38.568 145.307 38.568C145.009 38.568 144.743 38.638 144.509 38.778C144.285 38.918 144.108 39.1373 143.977 39.436C143.856 39.7253 143.795 40.0987 143.795 40.556C143.795 41.2373 143.935 41.746 144.215 42.082C144.495 42.4087 144.859 42.572 145.307 42.572ZM151.312 44.126C150.966 44.126 150.7 44.0327 150.514 43.846C150.336 43.6593 150.248 43.3933 150.248 43.048V38.078C150.248 37.7327 150.336 37.4713 150.514 37.294C150.7 37.1073 150.957 37.014 151.284 37.014C151.62 37.014 151.876 37.1073 152.054 37.294C152.231 37.4713 152.32 37.7327 152.32 38.078V38.876L152.166 38.414C152.38 37.9567 152.698 37.6067 153.118 37.364C153.547 37.112 154.032 36.986 154.574 36.986C155.124 36.986 155.577 37.0933 155.932 37.308C156.286 37.5133 156.552 37.8307 156.73 38.26C156.907 38.68 156.996 39.2167 156.996 39.87V43.048C156.996 43.3933 156.902 43.6593 156.716 43.846C156.538 44.0327 156.277 44.126 155.932 44.126C155.596 44.126 155.334 44.0327 155.148 43.846C154.97 43.6593 154.882 43.3933 154.882 43.048V39.968C154.882 39.492 154.793 39.1513 154.616 38.946C154.448 38.7313 154.186 38.624 153.832 38.624C153.384 38.624 153.024 38.764 152.754 39.044C152.492 39.324 152.362 39.6973 152.362 40.164V43.048C152.362 43.7667 152.012 44.126 151.312 44.126ZM161.948 44.154C161.304 44.154 160.762 44.0467 160.324 43.832C159.894 43.6173 159.572 43.3047 159.358 42.894C159.152 42.4833 159.05 41.9653 159.05 41.34V38.708H158.462C158.2 38.708 157.995 38.638 157.846 38.498C157.706 38.358 157.636 38.1667 157.636 37.924C157.636 37.6627 157.706 37.4667 157.846 37.336C157.995 37.196 158.2 37.126 158.462 37.126H159.05V36.062C159.05 35.7073 159.143 35.4413 159.33 35.264C159.516 35.0773 159.778 34.984 160.114 34.984C160.459 34.984 160.72 35.0773 160.898 35.264C161.075 35.4413 161.164 35.7073 161.164 36.062V37.126H162.494C162.755 37.126 162.956 37.196 163.096 37.336C163.236 37.4667 163.306 37.6627 163.306 37.924C163.306 38.1667 163.236 38.358 163.096 38.498C162.956 38.638 162.755 38.708 162.494 38.708H161.164V41.256C161.164 41.648 161.252 41.942 161.43 42.138C161.616 42.334 161.91 42.432 162.312 42.432C162.452 42.432 162.582 42.418 162.704 42.39C162.825 42.362 162.937 42.3433 163.04 42.334C163.17 42.3247 163.278 42.3667 163.362 42.46C163.446 42.544 163.488 42.7353 163.488 43.034C163.488 43.258 163.45 43.454 163.376 43.622C163.301 43.79 163.17 43.9113 162.984 43.986C162.862 44.0327 162.694 44.07 162.48 44.098C162.274 44.1353 162.097 44.154 161.948 44.154ZM165.326 44.126C164.971 44.126 164.701 44.0327 164.514 43.846C164.327 43.6593 164.234 43.3933 164.234 43.048V38.078C164.234 37.7327 164.323 37.4713 164.5 37.294C164.687 37.1073 164.943 37.014 165.27 37.014C165.606 37.014 165.863 37.1073 166.04 37.294C166.217 37.4713 166.306 37.7327 166.306 38.078V38.806H166.166C166.278 38.246 166.525 37.812 166.908 37.504C167.291 37.196 167.785 37.0233 168.392 36.986C168.625 36.9673 168.803 37.028 168.924 37.168C169.055 37.2987 169.125 37.518 169.134 37.826C169.153 38.1153 169.092 38.344 168.952 38.512C168.821 38.68 168.597 38.7827 168.28 38.82L167.958 38.848C167.426 38.8947 167.029 39.0487 166.768 39.31C166.516 39.5713 166.39 39.9493 166.39 40.444V43.048C166.39 43.3933 166.297 43.6593 166.11 43.846C165.933 44.0327 165.671 44.126 165.326 44.126ZM172.259 44.154C171.755 44.154 171.302 44.056 170.901 43.86C170.5 43.664 170.187 43.398 169.963 43.062C169.739 42.726 169.627 42.348 169.627 41.928C169.627 41.424 169.758 41.0273 170.019 40.738C170.28 40.4393 170.705 40.2293 171.293 40.108C171.881 39.9773 172.66 39.912 173.631 39.912H174.373V41.004H173.645C173.169 41.004 172.782 41.032 172.483 41.088C172.194 41.1347 171.984 41.2187 171.853 41.34C171.732 41.4613 171.671 41.6293 171.671 41.844C171.671 42.1053 171.76 42.32 171.937 42.488C172.124 42.656 172.39 42.74 172.735 42.74C173.006 42.74 173.244 42.6793 173.449 42.558C173.664 42.4273 173.832 42.2547 173.953 42.04C174.074 41.816 174.135 41.564 174.135 41.284V39.674C174.135 39.2633 174.042 38.974 173.855 38.806C173.668 38.6287 173.351 38.54 172.903 38.54C172.651 38.54 172.376 38.5727 172.077 38.638C171.788 38.694 171.466 38.792 171.111 38.932C170.906 39.0253 170.724 39.0487 170.565 39.002C170.406 38.946 170.285 38.8527 170.201 38.722C170.117 38.582 170.075 38.4327 170.075 38.274C170.075 38.106 170.122 37.9473 170.215 37.798C170.308 37.6393 170.462 37.5227 170.677 37.448C171.116 37.2707 171.526 37.1493 171.909 37.084C172.301 37.0187 172.66 36.986 172.987 36.986C173.706 36.986 174.294 37.0933 174.751 37.308C175.218 37.5133 175.568 37.8353 175.801 38.274C176.034 38.7033 176.151 39.2587 176.151 39.94V43.048C176.151 43.3933 176.067 43.6593 175.899 43.846C175.731 44.0327 175.488 44.126 175.171 44.126C174.854 44.126 174.606 44.0327 174.429 43.846C174.261 43.6593 174.177 43.3933 174.177 43.048V42.53L174.275 42.614C174.219 42.9313 174.098 43.2067 173.911 43.44C173.734 43.664 173.505 43.8413 173.225 43.972C172.945 44.0933 172.623 44.154 172.259 44.154ZM184.172 44.154C183.594 44.154 183.113 44.0467 182.73 43.832C182.348 43.6173 182.063 43.2953 181.876 42.866C181.699 42.4273 181.61 41.886 181.61 41.242V38.078C181.61 37.7233 181.699 37.4573 181.876 37.28C182.063 37.1027 182.324 37.014 182.66 37.014C182.996 37.014 183.258 37.1027 183.444 37.28C183.631 37.4573 183.724 37.7233 183.724 38.078V41.298C183.724 41.7087 183.808 42.0167 183.976 42.222C184.144 42.418 184.41 42.516 184.774 42.516C185.176 42.516 185.502 42.376 185.754 42.096C186.016 41.8067 186.146 41.4287 186.146 40.962V38.078C186.146 37.7233 186.235 37.4573 186.412 37.28C186.599 37.1027 186.86 37.014 187.196 37.014C187.542 37.014 187.803 37.1027 187.98 37.28C188.167 37.4573 188.26 37.7233 188.26 38.078V43.048C188.26 43.7667 187.92 44.126 187.238 44.126C186.902 44.126 186.646 44.0327 186.468 43.846C186.291 43.6593 186.202 43.3933 186.202 43.048V42.11L186.412 42.656C186.207 43.132 185.913 43.5007 185.53 43.762C185.148 44.0233 184.695 44.154 184.172 44.154ZM190.988 44.126C190.643 44.126 190.377 44.0327 190.19 43.846C190.013 43.6593 189.924 43.3933 189.924 43.048V38.078C189.924 37.7327 190.013 37.4713 190.19 37.294C190.377 37.1073 190.633 37.014 190.96 37.014C191.296 37.014 191.553 37.1073 191.73 37.294C191.907 37.4713 191.996 37.7327 191.996 38.078V38.974L191.842 38.414C192.029 37.9847 192.318 37.6393 192.71 37.378C193.102 37.1167 193.564 36.986 194.096 36.986C194.628 36.986 195.071 37.112 195.426 37.364C195.781 37.616 196.033 38.0033 196.182 38.526H195.986C196.191 38.05 196.504 37.6767 196.924 37.406C197.353 37.126 197.843 36.986 198.394 36.986C198.926 36.986 199.36 37.0933 199.696 37.308C200.041 37.5133 200.298 37.8307 200.466 38.26C200.634 38.68 200.718 39.2167 200.718 39.87V43.048C200.718 43.3933 200.625 43.6593 200.438 43.846C200.261 44.0327 200.004 44.126 199.668 44.126C199.323 44.126 199.057 44.0327 198.87 43.846C198.693 43.6593 198.604 43.3933 198.604 43.048V39.94C198.604 39.4827 198.529 39.1513 198.38 38.946C198.24 38.7313 197.997 38.624 197.652 38.624C197.251 38.624 196.938 38.764 196.714 39.044C196.49 39.324 196.378 39.7207 196.378 40.234V43.048C196.378 43.3933 196.285 43.6593 196.098 43.846C195.921 44.0327 195.664 44.126 195.328 44.126C194.992 44.126 194.731 44.0327 194.544 43.846C194.357 43.6593 194.264 43.3933 194.264 43.048V39.94C194.264 39.4827 194.189 39.1513 194.04 38.946C193.9 38.7313 193.657 38.624 193.312 38.624C192.911 38.624 192.598 38.764 192.374 39.044C192.15 39.324 192.038 39.7207 192.038 40.234V43.048C192.038 43.7667 191.688 44.126 190.988 44.126ZM208.572 44.154C208.068 44.154 207.615 44.056 207.214 43.86C206.812 43.664 206.5 43.398 206.276 43.062C206.052 42.726 205.94 42.348 205.94 41.928C205.94 41.424 206.07 41.0273 206.332 40.738C206.593 40.4393 207.018 40.2293 207.606 40.108C208.194 39.9773 208.973 39.912 209.944 39.912H210.686V41.004H209.958C209.482 41.004 209.094 41.032 208.796 41.088C208.506 41.1347 208.296 41.2187 208.166 41.34C208.044 41.4613 207.984 41.6293 207.984 41.844C207.984 42.1053 208.072 42.32 208.25 42.488C208.436 42.656 208.702 42.74 209.048 42.74C209.318 42.74 209.556 42.6793 209.762 42.558C209.976 42.4273 210.144 42.2547 210.266 42.04C210.387 41.816 210.448 41.564 210.448 41.284V39.674C210.448 39.2633 210.354 38.974 210.168 38.806C209.981 38.6287 209.664 38.54 209.216 38.54C208.964 38.54 208.688 38.5727 208.39 38.638C208.1 38.694 207.778 38.792 207.424 38.932C207.218 39.0253 207.036 39.0487 206.878 39.002C206.719 38.946 206.598 38.8527 206.514 38.722C206.43 38.582 206.388 38.4327 206.388 38.274C206.388 38.106 206.434 37.9473 206.528 37.798C206.621 37.6393 206.775 37.5227 206.99 37.448C207.428 37.2707 207.839 37.1493 208.222 37.084C208.614 37.0187 208.973 36.986 209.3 36.986C210.018 36.986 210.606 37.0933 211.064 37.308C211.53 37.5133 211.88 37.8353 212.114 38.274C212.347 38.7033 212.464 39.2587 212.464 39.94V43.048C212.464 43.3933 212.38 43.6593 212.212 43.846C212.044 44.0327 211.801 44.126 211.484 44.126C211.166 44.126 210.919 44.0327 210.742 43.846C210.574 43.6593 210.49 43.3933 210.49 43.048V42.53L210.588 42.614C210.532 42.9313 210.41 43.2067 210.224 43.44C210.046 43.664 209.818 43.8413 209.538 43.972C209.258 44.0933 208.936 44.154 208.572 44.154ZM215.133 44.126C214.787 44.126 214.521 44.0327 214.335 43.846C214.157 43.6593 214.069 43.3933 214.069 43.048V38.078C214.069 37.7327 214.157 37.4713 214.335 37.294C214.521 37.1073 214.778 37.014 215.105 37.014C215.441 37.014 215.697 37.1073 215.875 37.294C216.052 37.4713 216.141 37.7327 216.141 38.078V38.974L215.987 38.414C216.173 37.9847 216.463 37.6393 216.855 37.378C217.247 37.1167 217.709 36.986 218.241 36.986C218.773 36.986 219.216 37.112 219.571 37.364C219.925 37.616 220.177 38.0033 220.327 38.526H220.131C220.336 38.05 220.649 37.6767 221.069 37.406C221.498 37.126 221.988 36.986 222.539 36.986C223.071 36.986 223.505 37.0933 223.841 37.308C224.186 37.5133 224.443 37.8307 224.611 38.26C224.779 38.68 224.863 39.2167 224.863 39.87V43.048C224.863 43.3933 224.769 43.6593 224.583 43.846C224.405 44.0327 224.149 44.126 223.813 44.126C223.467 44.126 223.201 44.0327 223.015 43.846C222.837 43.6593 222.749 43.3933 222.749 43.048V39.94C222.749 39.4827 222.674 39.1513 222.525 38.946C222.385 38.7313 222.142 38.624 221.797 38.624C221.395 38.624 221.083 38.764 220.859 39.044C220.635 39.324 220.523 39.7207 220.523 40.234V43.048C220.523 43.3933 220.429 43.6593 220.243 43.846C220.065 44.0327 219.809 44.126 219.473 44.126C219.137 44.126 218.875 44.0327 218.689 43.846C218.502 43.6593 218.409 43.3933 218.409 43.048V39.94C218.409 39.4827 218.334 39.1513 218.185 38.946C218.045 38.7313 217.802 38.624 217.457 38.624C217.055 38.624 216.743 38.764 216.519 39.044C216.295 39.324 216.183 39.7207 216.183 40.234V43.048C216.183 43.7667 215.833 44.126 215.133 44.126ZM227.546 44.112C227.201 44.112 226.935 44.014 226.748 43.818C226.571 43.6127 226.482 43.328 226.482 42.964V38.176C226.482 37.8027 226.571 37.518 226.748 37.322C226.935 37.1167 227.201 37.014 227.546 37.014C227.882 37.014 228.139 37.1167 228.316 37.322C228.503 37.518 228.596 37.8027 228.596 38.176V42.964C228.596 43.328 228.507 43.6127 228.33 43.818C228.153 44.014 227.891 44.112 227.546 44.112ZM227.546 35.866C227.154 35.866 226.851 35.7773 226.636 35.6C226.431 35.4133 226.328 35.152 226.328 34.816C226.328 34.4707 226.431 34.2093 226.636 34.032C226.851 33.8453 227.154 33.752 227.546 33.752C227.938 33.752 228.237 33.8453 228.442 34.032C228.647 34.2093 228.75 34.4707 228.75 34.816C228.75 35.152 228.647 35.4133 228.442 35.6C228.237 35.7773 227.938 35.866 227.546 35.866ZM233.532 46.674C233.028 46.674 232.543 46.632 232.076 46.548C231.619 46.464 231.213 46.338 230.858 46.17C230.643 46.0767 230.489 45.9553 230.396 45.806C230.312 45.6567 230.275 45.498 230.284 45.33C230.303 45.162 230.359 45.0127 230.452 44.882C230.555 44.7513 230.681 44.658 230.83 44.602C230.979 44.5553 231.138 44.5693 231.306 44.644C231.717 44.8307 232.095 44.952 232.44 45.008C232.795 45.064 233.098 45.092 233.35 45.092C233.947 45.092 234.395 44.9567 234.694 44.686C234.993 44.4153 235.142 44 235.142 43.44V42.376H235.268C235.128 42.8053 234.839 43.1553 234.4 43.426C233.961 43.6967 233.476 43.832 232.944 43.832C232.328 43.832 231.791 43.692 231.334 43.412C230.877 43.1227 230.522 42.7213 230.27 42.208C230.018 41.6853 229.892 41.0833 229.892 40.402C229.892 39.8887 229.962 39.422 230.102 39.002C230.251 38.582 230.457 38.2227 230.718 37.924C230.989 37.6253 231.311 37.3967 231.684 37.238C232.067 37.07 232.487 36.986 232.944 36.986C233.495 36.986 233.98 37.1213 234.4 37.392C234.829 37.6533 235.114 37.9987 235.254 38.428L235.114 38.876V38.078C235.114 37.7327 235.203 37.4713 235.38 37.294C235.567 37.1073 235.828 37.014 236.164 37.014C236.5 37.014 236.757 37.1073 236.934 37.294C237.111 37.4713 237.2 37.7327 237.2 38.078V43.202C237.2 44.35 236.883 45.2133 236.248 45.792C235.623 46.38 234.717 46.674 233.532 46.674ZM233.574 42.25C233.891 42.25 234.162 42.1753 234.386 42.026C234.619 41.8767 234.801 41.6667 234.932 41.396C235.063 41.116 235.128 40.7847 235.128 40.402C235.128 39.8233 234.983 39.3753 234.694 39.058C234.414 38.7313 234.041 38.568 233.574 38.568C233.257 38.568 232.981 38.6427 232.748 38.792C232.515 38.932 232.333 39.142 232.202 39.422C232.081 39.6927 232.02 40.0193 232.02 40.402C232.02 40.9807 232.16 41.4333 232.44 41.76C232.72 42.0867 233.098 42.25 233.574 42.25ZM242.145 44.154C241.408 44.154 240.764 44.0093 240.213 43.72C239.672 43.4307 239.252 43.0153 238.953 42.474C238.655 41.9327 238.505 41.2933 238.505 40.556C238.505 40.0053 238.589 39.5107 238.757 39.072C238.925 38.6333 239.168 38.26 239.485 37.952C239.812 37.6347 240.199 37.3967 240.647 37.238C241.095 37.07 241.595 36.986 242.145 36.986C242.883 36.986 243.522 37.1307 244.063 37.42C244.614 37.7093 245.039 38.12 245.337 38.652C245.645 39.184 245.799 39.8187 245.799 40.556C245.799 41.116 245.711 41.6153 245.533 42.054C245.365 42.4927 245.123 42.8707 244.805 43.188C244.488 43.5053 244.101 43.748 243.643 43.916C243.195 44.0747 242.696 44.154 242.145 44.154ZM242.145 42.572C242.453 42.572 242.719 42.4973 242.943 42.348C243.167 42.1987 243.345 41.9793 243.475 41.69C243.606 41.3913 243.671 41.0133 243.671 40.556C243.671 39.8747 243.531 39.3753 243.251 39.058C242.971 38.7313 242.603 38.568 242.145 38.568C241.847 38.568 241.581 38.638 241.347 38.778C241.123 38.918 240.946 39.1373 240.815 39.436C240.694 39.7253 240.633 40.0987 240.633 40.556C240.633 41.2373 240.773 41.746 241.053 42.082C241.333 42.4087 241.697 42.572 242.145 42.572ZM252.018 44.07C251.644 44.07 251.346 43.958 251.122 43.734C250.907 43.51 250.8 43.2207 250.8 42.866C250.8 42.5207 250.907 42.2407 251.122 42.026C251.346 41.802 251.644 41.69 252.018 41.69C252.391 41.69 252.68 41.802 252.886 42.026C253.1 42.2407 253.208 42.5207 253.208 42.866C253.208 43.2207 253.1 43.51 252.886 43.734C252.68 43.958 252.391 44.07 252.018 44.07ZM252.018 39.436C251.644 39.436 251.346 39.324 251.122 39.1C250.907 38.876 250.8 38.5913 250.8 38.246C250.8 37.8913 250.907 37.6067 251.122 37.392C251.346 37.168 251.644 37.056 252.018 37.056C252.391 37.056 252.68 37.168 252.886 37.392C253.1 37.6067 253.208 37.8913 253.208 38.246C253.208 38.5913 253.1 38.876 252.886 39.1C252.68 39.324 252.391 39.436 252.018 39.436ZM255.948 44C255.584 44 255.304 43.902 255.108 43.706C254.912 43.51 254.814 43.23 254.814 42.866V35.264C254.814 34.9 254.912 34.62 255.108 34.424C255.304 34.228 255.584 34.13 255.948 34.13H258.678C260.368 34.13 261.67 34.5593 262.584 35.418C263.508 36.2673 263.97 37.4807 263.97 39.058C263.97 39.8513 263.849 40.556 263.606 41.172C263.373 41.7787 263.032 42.292 262.584 42.712C262.136 43.132 261.586 43.454 260.932 43.678C260.279 43.8927 259.528 44 258.678 44H255.948ZM256.984 42.222H258.552C259.084 42.222 259.546 42.1567 259.938 42.026C260.33 41.8953 260.657 41.6993 260.918 41.438C261.18 41.1767 261.376 40.85 261.506 40.458C261.637 40.0567 261.702 39.59 261.702 39.058C261.702 37.994 261.436 37.2053 260.904 36.692C260.382 36.1693 259.598 35.908 258.552 35.908H256.984V42.222Z" fill="white"/>
<g clip-path="url(#clip0_4_96)">
<path d="M13.6067 17.3333C12.641 17.3196 11.7103 16.9695 10.975 16.3433C9.43965 14.9355 8.50954 12.9874 8.38003 10.9083C7.97503 6.75165 10.2417 4.30165 12.69 4.02832C13.28 3.96253 13.8771 4.01629 14.4458 4.18638C15.0145 4.35648 15.5431 4.63942 16 5.01832C16.6821 5.63293 17.2359 6.37639 17.6295 7.2059C18.0231 8.03541 18.2487 8.93459 18.2934 9.85165C18.6667 13.7233 16.6034 17.3333 13.6067 17.3333ZM4.75503 27.3333C3.86816 27.313 3.02144 26.9596 2.38336 26.3433C0.972513 24.8744 0.143313 22.9429 0.0500256 20.9083C-0.316641 16.7517 1.72669 14.3017 3.93503 14.0283C4.47334 13.9668 5.01858 14.0235 5.53271 14.1945C6.04683 14.3655 6.51744 14.6467 6.91169 15.0183C8.17966 16.3152 8.91733 18.039 8.98003 19.8517C9.31503 23.7233 7.26503 27.3333 4.75503 27.3333ZM26.3934 17.3333C23.3767 17.3333 21.3367 13.7233 21.715 9.84665C21.7597 8.92959 21.9853 8.03041 22.3789 7.2009C22.7725 6.37139 23.3263 5.62793 24.0084 5.01332C24.4648 4.63661 24.9922 4.35533 25.5593 4.18614C26.1265 4.01694 26.7218 3.96328 27.31 4.02832C29.7584 4.30165 32.025 6.75165 31.62 10.9083C31.4904 12.9879 30.5604 14.9364 29.025 16.345C28.2892 16.9701 27.3587 17.3195 26.3934 17.3333ZM35.0884 27.3333C31.945 27.3333 30.3767 23.7233 30.73 19.8467C30.8001 18.0224 31.5637 16.2937 32.865 15.0133C33.2779 14.6389 33.7659 14.3569 34.2965 14.1862C34.8271 14.0154 35.388 13.9599 35.9417 14.0233C38.2217 14.2967 40.3334 16.7467 39.9567 20.9033C39.8508 22.9523 38.9892 24.8893 37.5384 26.34C36.871 26.9602 35.9992 27.3137 35.0884 27.3333ZM26.6667 44C25.2423 44.028 23.8356 43.6802 22.5884 42.9917C21.7904 42.5713 20.902 42.3516 20 42.3516C19.0981 42.3516 18.2097 42.5713 17.4117 42.9917C12.39 45.8033 6.53669 42.7117 6.66669 35.6667C6.66669 27.94 14.1784 20.6667 20 20.6667C25.8217 20.6667 33.3334 27.94 33.3334 35.6667C33.3334 40.5733 30.5917 44 26.6667 44Z" fill="white"/>
</g>
<defs>
<clipPath id="clip0_4_96">
<rect width="40" height="40" fill="white" transform="translate(0 4)"/>
</clipPath>
</defs>
</svg>
